# Blender v2.90.1 OBJ File: 'low-poly-axe.blend'
# www.blender.org
mtllib axe.mtl
o axe_data
v 0.007823 2.429765 -0.265515
v -0.163020 2.429765 -0.245949
v -0.290814 2.429765 -0.175896
v -0.341318 2.429765 -0.074126
v -0.300999 2.429765 0.032091
v -0.180660 2.429765 0.114295
v -0.012547 2.429765 0.150459
v 0.158295 2.429765 0.130893
v 0.286090 2.429765 0.060840
v 0.296275 2.429765 -0.147147
v 0.175936 2.429765 -0.229351
v -0.163020 1.048148 -0.245949
v -0.290814 1.048148 -0.175896
v 0.286090 1.048148 0.060840
v -0.180660 1.048148 0.114295
v -0.012547 1.048148 0.150459
v -0.341318 1.048148 -0.074126
v 0.296275 1.048148 -0.147147
v 0.158295 1.048148 0.130893
v -0.300999 1.048148 0.032091
v 0.175936 1.048148 -0.229351
v 0.007823 1.048148 -0.265515
v 0.485796 2.429765 -0.129703
v 0.476360 2.429765 0.065292
v 0.476360 1.176744 0.065292
v 0.485796 1.176744 -0.129703
v 2.139515 2.781198 0.063410
v 2.139515 0.825312 0.063410
v 0.808701 1.167523 0.073068
v 1.149596 1.138899 0.075761
v 1.465078 1.078026 0.083143
v 1.805726 0.975143 0.096397
v 1.809929 0.975143 -0.007824
v 1.470015 1.078026 -0.033807
v 1.155775 1.138899 -0.062731
v 0.816829 1.167523 -0.099233
v 0.808701 2.438986 0.073068
v 1.149596 2.467610 0.075761
v 1.465078 2.528483 0.083143
v 1.805726 2.631367 0.096397
v 1.809929 2.631367 -0.007824
v 1.470015 2.528483 -0.033807
v 1.155775 2.467610 -0.062731
v 0.816829 2.438986 -0.099233
v 0.296275 1.048148 -0.147147
v 0.296275 2.429765 -0.147147
v 0.286090 2.429765 0.060840
v 0.286090 1.048148 0.060840
v 0.024080 -2.843605 -0.264719
v -0.111535 -2.843605 -0.243428
v -0.213541 -2.843605 -0.172112
v -0.254606 -2.843605 -0.069880
v -0.223726 -2.843605 0.035875
v -0.129176 -2.843605 0.116816
v 0.003711 -2.843605 0.151255
v 0.139326 -2.843605 0.129964
v 0.241332 -2.843605 0.058648
v 0.282397 -2.843605 -0.043584
v 0.251517 -2.843605 -0.149339
v 0.156967 -2.843605 -0.230280
v 0.007823 2.516838 -0.265515
v -0.127793 2.516838 -0.244224
v -0.229799 2.516838 -0.172908
v -0.270864 2.516838 -0.070676
v -0.239984 2.516838 0.035079
v -0.145433 2.516838 0.116020
v -0.012547 2.516838 0.150459
v 0.123068 2.516838 0.129168
v 0.225074 2.516838 0.057852
v 0.266139 2.516838 -0.044380
v 0.235259 2.516838 -0.150135
v 0.140709 2.516838 -0.231076
v -0.127793 0.961078 -0.244224
v -0.229799 0.961078 -0.172908
v 0.225074 0.961078 0.057852
v 0.266139 0.961078 -0.044380
v -0.145433 0.961078 0.116020
v -0.012547 0.961078 0.150459
v -0.270864 0.961078 -0.070676
v 0.235259 0.961078 -0.150135
v 0.123068 0.961078 0.129168
v -0.239984 0.961078 0.035079
v 0.140709 0.961078 -0.231076
v 0.007823 0.961078 -0.265515
v -0.246993 0.558957 -0.130103
v 0.041291 0.558957 -0.055391
v -0.120707 0.558957 0.057867
v -0.270864 0.558957 -0.070676
v 0.023341 0.558957 -0.116865
v -0.041875 0.558957 0.045491
v -0.252914 0.558957 -0.009202
v -0.031620 0.558957 -0.163915
v -0.187698 0.558957 -0.171558
v 0.017420 0.558957 0.004036
v -0.197952 0.558957 0.037848
v -0.108866 0.558957 -0.183934
v -0.246964 -0.375557 -0.173749
v -0.243931 -1.509745 -0.173600
v 0.009890 -0.375557 -0.056928
v 0.055173 -1.509745 -0.054711
v -0.140672 -0.375557 0.144185
v -0.118030 -1.509745 0.145294
v -0.270864 -0.375557 -0.070676
v -0.270864 -1.509745 -0.070676
v -0.003824 -0.375557 -0.161843
v 0.038426 -1.509745 -0.159774
v -0.069118 -0.375557 0.119757
v -0.035156 -1.509745 0.121420
v -0.257149 -0.375557 0.034238
v -0.254116 -1.509745 0.034387
v -0.051478 -0.375557 -0.240487
v -0.017515 -1.509745 -0.238824
v -0.180534 -1.509745 -0.246807
v -0.191855 -0.375557 -0.247361
v 0.028241 -1.509745 0.048213
v -0.014009 -0.375557 0.046144
v -0.198175 -1.509745 0.113437
v -0.209496 -0.375557 0.112883
v -0.097660 -1.509745 -0.270681
v -0.120302 -0.375557 -0.271789
v 0.004862 2.590910 -0.205065
v -0.091337 2.590910 -0.189962
v -0.163695 2.590910 -0.139374
v -0.192825 2.590910 -0.066855
v -0.170920 2.590910 0.008163
v -0.103850 2.590910 0.065579
v -0.009587 2.590910 0.090008
v 0.086612 2.590910 0.074905
v 0.158971 2.590910 0.024317
v 0.188100 2.590910 -0.048201
v 0.166196 2.590910 -0.123219
v 0.099126 2.590910 -0.180635
v 0.019912 -2.895914 -0.179593
v -0.060198 -2.895914 -0.167016
v -0.120454 -2.895914 -0.124889
v -0.144712 -2.895914 -0.064499
v -0.126470 -2.895914 -0.002028
v -0.070618 -2.895914 0.045785
v 0.007879 -2.895914 0.066128
v 0.087989 -2.895914 0.053552
v 0.148245 -2.895914 0.011424
v 0.172503 -2.895914 -0.048965
v 0.154262 -2.895914 -0.111436
v 0.098409 -2.895914 -0.159249
vt 0.508159 0.616377
vt 0.531843 0.356152
vt 0.508159 0.356152
vt 0.175858 0.616377
vt 0.206800 0.356152
vt 0.175858 0.356152
vt 0.483117 0.616377
vt 0.483117 0.356152
vt 0.145868 0.616377
vt 0.145867 0.356152
vt 0.463427 0.616377
vt 0.463427 0.356152
vt 0.433271 0.616377
vt 0.455823 0.356152
vt 0.433271 0.356152
vt 0.372171 0.616377
vt 0.402652 0.356152
vt 0.372171 0.356152
vt 0.124863 0.616377
vt 0.124863 0.356152
vt 0.206800 0.616377
vt 0.230401 0.356152
vt 0.402652 0.616377
vt 0.133266 0.289573
vt 0.167521 0.053569
vt 0.133266 0.029348
vt 0.663710 0.345356
vt 0.663710 0.389657
vt 0.640554 0.349098
vt 0.468219 0.289573
vt 0.434141 0.053569
vt 0.434141 0.313793
vt 0.584963 0.555507
vt 0.539484 0.530321
vt 0.537631 0.555507
vt 0.635175 0.530379
vt 0.589697 0.554872
vt 0.637029 0.554872
vt 0.365008 0.361560
vt 0.305394 0.701727
vt 0.305394 0.389781
vt 0.238711 0.729948
vt 0.299380 0.389781
vt 0.299380 0.701727
vt 0.640553 0.434560
vt 0.663709 0.394083
vt 0.663709 0.438308
vt 0.583859 0.530306
vt 0.542722 0.486285
vt 0.581929 0.486244
vt 0.547240 0.441068
vt 0.578751 0.440988
vt 0.550313 0.399012
vt 0.576919 0.398907
vt 0.552433 0.353373
vt 0.227354 0.291309
vt 0.167521 0.289573
vt 0.288677 0.296700
vt 0.227354 0.051832
vt 0.345474 0.308166
vt 0.288677 0.046441
vt 0.406853 0.015597
vt 0.345474 0.034975
vt 0.527743 0.291309
vt 0.468219 0.053569
vt 0.588663 0.296700
vt 0.527743 0.051832
vt 0.645167 0.308166
vt 0.588663 0.046441
vt 0.706315 0.015597
vt 0.645167 0.034975
vt 0.631938 0.486341
vt 0.590801 0.530364
vt 0.627419 0.441113
vt 0.592730 0.486300
vt 0.624346 0.399030
vt 0.595909 0.441034
vt 0.622227 0.353343
vt 0.597740 0.398925
vt 0.147986 0.717460
vt 0.212643 0.701007
vt 0.130661 0.701007
vt 0.124319 0.678532
vt 0.130661 0.656057
vt 0.218984 0.678532
vt 0.212643 0.656057
vt 0.147986 0.639604
vt 0.195318 0.639604
vt 0.171652 0.633582
vt 0.530630 0.659453
vt 0.471868 0.633671
vt 0.450360 0.647187
vt 0.530630 0.682405
vt 0.437942 0.668243
vt 0.518212 0.703460
vt 0.496704 0.716976
vt 0.437942 0.691195
vt 0.450360 0.709895
vt 0.471868 0.719332
vt 0.000000 0.000000
vt 0.000000 0.000000
vt 0.000000 0.000000
vt 0.000000 0.000000
vt 0.000000 0.000000
vt 0.000000 0.000000
vt 0.000000 0.000000
vt 0.000000 0.000000
vt 0.009032 0.942128
vt 0.028167 0.682056
vt 0.007965 0.681924
vt 0.941171 0.941539
vt 0.967414 0.681382
vt 0.942779 0.681326
vt 0.786812 0.057587
vt 0.754580 0.317675
vt 0.785752 0.317716
vt 0.866635 0.941531
vt 0.889779 0.681250
vt 0.865345 0.681309
vt 0.919021 0.941397
vt 0.920629 0.681183
vt 0.815961 0.057872
vt 0.814901 0.318001
vt 0.844035 0.941605
vt 0.842745 0.681382
vt 0.089924 0.942189
vt 0.113084 0.681800
vt 0.088858 0.681985
vt 0.029234 0.942260
vt 0.057776 0.682078
vt 0.965805 0.941596
vt 0.987931 0.681337
vt 0.755640 0.057546
vt 0.729736 0.317888
vt 0.058843 0.942283
vt 0.052458 0.614617
vt 0.034390 0.614671
vt 0.738939 0.385172
vt 0.724497 0.385297
vt 0.965278 0.613831
vt 0.977205 0.613805
vt 0.017179 0.614658
vt 0.066540 0.614510
vt 0.851874 0.614091
vt 0.865011 0.614049
vt 0.774003 0.385362
vt 0.757059 0.385196
vt 0.950958 0.613798
vt 0.938083 0.613716
vt 0.879215 0.614014
vt 0.005436 0.614582
vt 0.888233 0.457676
vt 0.890678 0.613998
vt 0.906758 0.457637
vt 0.953009 0.457456
vt 0.977050 0.457532
vt 0.739277 0.541087
vt 0.756058 0.541051
vt 0.864236 0.457738
vt 0.930266 0.457334
vt 0.770814 0.541258
vt 0.841198 0.457808
vt 0.058127 0.458309
vt 0.044501 0.458480
vt 0.012771 0.458518
vt 0.027899 0.458557
vt 0.995948 0.457544
vt 0.724969 0.541358
vt 0.058843 0.045732
vt 0.051400 0.268776
vt 0.089924 0.045639
vt 0.032240 0.268856
vt 0.741048 0.730742
vt 0.730797 0.954066
vt 0.755640 0.953852
vt 0.825292 0.457867
vt 0.840335 0.268100
vt 0.824640 0.268161
vt 0.976764 0.267881
vt 0.991303 0.044991
vt 0.970786 0.045036
vt 0.995948 0.267882
vt 0.029234 0.045710
vt 0.014552 0.268819
vt 0.066899 0.268602
vt 0.114150 0.045455
vt 0.914916 0.267538
vt 0.929980 0.267682
vt 0.862604 0.044926
vt 0.840003 0.045000
vt 0.863296 0.268029
vt 0.777671 0.730940
vt 0.786812 0.953893
vt 0.815961 0.954178
vt 0.760371 0.730719
vt 0.924002 0.044838
vt 0.952618 0.267808
vt 0.946152 0.044980
vt 0.887370 0.267968
vt 0.887038 0.044867
vt 0.906106 0.267931
vt 0.906758 0.044838
vt 0.673411 0.733756
vt 0.649208 0.738897
vt 0.656087 0.750215
vt 0.082539 0.954479
vt 0.615632 0.738897
vt 0.591429 0.733756
vt 0.608754 0.750215
vt 0.632420 0.679378
vt 0.656087 0.672333
vt 0.632420 0.666309
vt 0.762555 0.045437
vt 0.632420 0.743170
vt 0.632420 0.756239
vt 0.608754 0.672333
vt 0.805344 0.045669
vt 0.591429 0.688792
vt 0.615632 0.683651
vt 0.039488 0.954530
vt 0.649208 0.683651
vt 0.673411 0.688792
vt 0.603343 0.695326
vt 0.630974 0.587377
vt 0.650727 0.571716
vt 0.625891 0.569357
vt 0.591964 0.620462
vt 0.610933 0.604001
vt 0.591964 0.597501
vt 0.645645 0.639391
vt 0.625891 0.655051
vt 0.650727 0.657410
vt 0.645645 0.588770
vt 0.672236 0.585240
vt 0.684654 0.606305
vt 0.665686 0.622766
vt 0.684654 0.629267
vt 0.618268 0.592952
vt 0.604382 0.578795
vt 0.630974 0.637997
vt 0.604382 0.641527
vt 0.658350 0.596759
vt 0.658350 0.633816
vt 0.672236 0.647972
vt 0.618268 0.630008
vt 0.531843 0.616377
vt 0.455823 0.616377
vt 0.230401 0.616377
vt 0.365008 0.729948
vt 0.238711 0.361560
vt 0.576141 0.353254
vt 0.406853 0.327544
vt 0.706315 0.327544
vt 0.598519 0.353224
vt 0.195318 0.717460
vt 0.518212 0.640753
vt 0.891069 0.941472
vt 0.114150 0.942005
vt 0.986323 0.941551
vt 0.730796 0.057759
vt 0.724878 0.731002
vt 0.914916 0.457200
vt 0.661497 0.727222
vt 0.060491 0.954545
vt 0.603343 0.727222
vt 0.784668 0.045466
vt 0.661497 0.695326
vt 0.598845 0.711274
vt 0.665996 0.711274
vt 0.610933 0.617565
vt 0.665686 0.609202
vn -0.7214 0.0000 -0.6925
vn -0.3029 0.0000 -0.9530
vn -0.0489 0.0000 0.9988
vn -0.3946 0.0000 0.9189
vn -0.9988 0.0000 -0.0489
vn 0.3029 0.0000 0.9530
vn -0.7856 0.0000 0.6187
vn 0.3946 0.0000 -0.9189
vn 0.5641 0.0000 -0.8257
vn 0.0489 0.0000 -0.9988
vn 0.1648 0.0000 0.9863
vn 0.0917 0.0000 -0.9958
vn -0.3466 -0.9379 -0.0140
vn -0.4108 -0.9116 -0.0166
vn -0.3479 -0.9374 -0.0140
vn -0.0234 0.0000 0.9997
vn -0.0078 0.0000 1.0000
vn -0.0055 0.0000 1.0000
vn 0.0000 1.0000 0.0000
vn -0.0135 0.9999 -0.0007
vn 0.2871 -0.9578 0.0140
vn 0.5594 -0.8284 0.0273
vn 0.5595 -0.8284 0.0274
vn 0.0983 0.0000 0.9952
vn 0.2113 0.0000 -0.9774
vn -0.3479 0.9374 -0.0140
vn -0.4108 0.9116 -0.0166
vn -0.3466 0.9379 -0.0140
vn -0.0136 0.9999 -0.0007
vn -0.0548 0.9985 -0.0026
vn -0.0552 0.9985 -0.0026
vn -0.1349 0.9908 -0.0061
vn -0.1357 0.9907 -0.0060
vn -0.2381 0.9712 -0.0101
vn -0.2390 0.9710 -0.0100
vn 0.0996 0.0000 -0.9950
vn 0.0987 0.0000 -0.9951
vn 0.0828 0.0000 -0.9966
vn 0.0762 0.0000 -0.9971
vn -0.0154 0.0000 0.9999
vn -0.0163 0.0000 0.9999
vn -0.0323 0.0000 0.9995
vn -0.0389 0.0000 0.9992
vn -0.0548 -0.9985 -0.0026
vn 0.2837 -0.9588 0.0137
vn -0.1349 -0.9908 -0.0061
vn -0.0552 -0.9985 -0.0026
vn -0.2381 -0.9712 -0.0101
vn -0.1357 -0.9907 -0.0060
vn -0.2390 -0.9710 -0.0100
vn 0.0000 -1.0000 -0.0000
vn 0.0000 0.0000 1.0000
vn -0.7363 0.3569 -0.5748
vn -0.3601 -0.0581 -0.9311
vn -0.7767 -0.0174 -0.6296
vn 0.9288 0.3679 0.0455
vn 0.7726 -0.2188 0.5960
vn 0.9695 -0.2404 0.0475
vn -0.0463 0.3229 0.9453
vn -0.4493 -0.0581 0.8915
vn -0.0326 -0.1094 0.9935
vn -0.9288 0.3679 -0.0455
vn 0.7890 0.3569 -0.5001
vn 0.8271 -0.2188 -0.5177
vn 0.3584 0.3341 0.8718
vn 0.3845 -0.1668 0.9079
vn -0.7890 0.3569 0.5001
vn -0.8345 -0.0174 0.5507
vn 0.4418 0.3341 -0.8326
vn 0.4714 -0.1668 -0.8660
vn -0.3584 0.3341 -0.8718
vn 0.0647 -0.1094 -0.9919
vn 0.7363 0.3569 0.5748
vn -0.4418 0.3341 0.8326
vn 0.0463 0.3229 -0.9453
vn 0.4471 -0.1410 -0.8833
vn 0.0320 -0.0633 -0.9975
vn -0.4814 -0.0224 0.8762
vn -0.8487 -0.0053 0.5289
vn 0.7541 -0.2346 0.6135
vn 0.3587 -0.1410 0.9228
vn -0.3935 -0.0224 -0.9190
vn 0.8104 -0.2346 -0.5369
vn -0.0656 -0.0633 0.9958
vn 0.9582 -0.2823 0.0469
vn -0.7929 -0.0053 -0.6093
vn -0.9037 0.0155 -0.4278
vn -0.5823 0.0362 -0.8121
vn 0.9988 0.0070 0.0489
vn 0.9027 0.0166 0.4300
vn -0.6589 0.0362 0.7514
vn -0.0525 0.0469 0.9975
vn -0.9988 0.0051 -0.0489
vn 0.9404 0.0166 -0.3398
vn 0.5782 0.0362 0.8151
vn -0.9412 0.0155 0.3375
vn 0.6551 0.0362 -0.7547
vn 0.0452 0.0469 -0.9979
vn 0.0520 -0.4608 -0.8860
vn 0.6108 0.0436 -0.7906
vn 0.4325 -0.4416 -0.7861
vn 0.0441 0.0036 -0.9990
vn -0.6183 -0.0129 0.7859
vn -0.7339 -0.4962 0.4639
vn -0.4082 -0.4822 0.7752
vn -0.9260 -0.0104 0.3775
vn 0.8783 0.0838 0.4708
vn 0.3536 -0.4416 0.8246
vn 0.7875 0.1357 0.6012
vn 0.5306 0.0436 0.8465
vn -0.3305 -0.4822 -0.8113
vn -0.5385 -0.0129 -0.8425
vn 0.9201 0.0838 -0.3827
vn 0.8424 0.1357 -0.5214
vn -0.9986 -0.0223 -0.0489
vn -0.9988 -0.0074 -0.0489
vn -0.0348 -0.4608 0.8868
vn -0.0537 0.0036 0.9986
vn 0.9938 0.1001 0.0487
vn 0.9846 0.1681 0.0482
vn -0.8847 -0.0104 -0.4661
vn -0.6851 -0.4962 -0.5334
vn -0.3669 0.8949 0.2539
vn 0.2054 0.8855 -0.4168
vn -0.3404 0.8949 -0.2885
vn 0.4334 0.9010 0.0212
vn -0.2054 0.8855 0.4168
vn -0.4334 0.9010 -0.0212
vn 0.1637 0.8855 0.4349
vn 0.3669 0.8949 -0.2539
vn -0.1637 0.8855 -0.4349
vn 0.3404 0.8949 0.2885
vn 0.2632 -0.9647 0.0129
vn 0.3874 -0.8912 -0.2359
vn 0.4289 -0.9031 0.0210
vn 0.1019 -0.9552 0.2780
vn -0.2632 -0.9647 -0.0129
vn -0.4289 -0.9031 -0.0210
vn 0.2255 -0.9611 -0.1597
vn -0.1019 -0.9552 -0.2780
vn 0.2088 -0.9611 0.1810
vn 0.3625 -0.8912 0.2726
vn -0.2255 -0.9611 0.1597
vn 0.1285 -0.9552 -0.2668
vn -0.2088 -0.9611 -0.1810
vn -0.1285 -0.9552 0.2668
vn 0.0231 0.8817 -0.4713
vn -0.0231 0.8817 0.4713
vn -0.0149 -0.9527 0.3035
vn 0.0149 -0.9527 -0.3035
g axe_data_Material
usemtl Material
s 1
f 3/1/1 12/2/2 13/3/1
f 7/4/3 15/5/4 16/6/3
f 4/7/5 13/3/1 17/8/5
f 8/9/6 16/6/3 19/10/6
f 5/11/7 17/8/5 20/12/7
f 11/13/8 18/14/9 21/15/8
f 2/16/2 22/17/10 12/18/2
f 9/19/11 19/10/6 14/20/11
f 6/21/4 20/22/7 15/5/4
f 1/23/10 21/15/8 22/17/10
f 46/24/12 26/25/12 45/26/12
f 33/27/13 28/28/14 32/29/15
f 25/30/16 47/31/17 48/32/18
f 47/33/19 23/34/20 46/35/19
f 26/36/21 48/37/22 45/38/23
f 28/39/24 40/40/24 32/41/24
f 27/42/25 33/43/25 41/44/25
f 40/45/26 27/46/27 41/47/28
f 24/48/29 44/49/30 23/34/20
f 37/50/31 43/51/32 44/49/30
f 38/52/33 42/53/34 43/51/32
f 39/54/35 41/55/28 42/53/34
f 44/56/36 26/25/12 23/57/12
f 43/58/37 36/59/36 44/56/36
f 42/60/38 35/61/37 43/58/37
f 42/60/38 33/62/39 34/63/38
f 29/64/40 24/65/16 25/30/16
f 30/66/41 37/67/40 29/64/40
f 31/68/42 38/69/41 30/66/41
f 31/68/42 40/70/43 39/71/42
f 36/72/44 25/73/45 26/36/21
f 35/74/46 29/75/47 36/72/44
f 34/76/48 30/77/49 35/74/46
f 33/78/13 31/79/50 34/76/48
f 9/80/19 11/81/19 8/82/19
f 11/81/19 7/83/19 8/82/19
f 6/84/19 1/85/19 2/86/19
f 5/87/19 2/86/19 3/88/19
f 4/89/19 5/87/19 3/88/19
f 21/90/51 14/91/51 19/92/51
f 19/92/51 22/93/51 21/90/51
f 16/94/51 12/95/51 22/93/51
f 13/96/51 15/97/51 20/98/51
f 17/99/51 13/96/51 20/98/51
f 18/100/52 48/101/18 14/102/11
f 9/103/11 46/104/52 10/105/52
f 14/102/11 47/106/17 9/103/11
f 10/105/52 45/107/52 18/100/52
f 63/108/53 73/109/54 74/110/55
f 70/111/56 75/112/57 76/113/58
f 67/114/59 77/115/60 78/116/61
f 64/117/62 74/118/55 79/119/5
f 71/120/63 76/113/58 80/121/64
f 68/122/65 78/116/61 81/123/66
f 65/124/67 79/119/5 82/125/68
f 72/126/69 80/127/64 83/128/70
f 62/129/71 84/130/72 73/109/54
f 69/131/73 81/132/66 75/112/57
f 66/133/74 82/134/68 77/115/60
f 61/135/75 83/128/70 84/130/72
f 84/130/72 92/136/76 96/137/77
f 95/138/78 82/134/68 91/139/79
f 94/140/80 81/132/66 90/141/81
f 73/109/54 96/137/77 93/142/82
f 83/128/70 89/143/83 92/136/76
f 91/144/79 79/119/5 88/145/5
f 90/146/81 78/116/61 87/147/84
f 80/121/64 86/148/85 89/149/83
f 79/119/5 85/150/86 88/145/5
f 87/147/84 77/115/60 95/138/78
f 86/148/85 75/112/57 94/140/80
f 74/110/55 93/142/82 85/151/86
f 97/152/87 93/153/82 114/154/88
f 99/155/89 94/140/80 116/156/90
f 87/147/84 118/157/91 101/158/92
f 103/159/93 85/150/86 97/152/87
f 89/149/83 99/155/89 105/160/94
f 107/161/95 87/147/84 101/158/92
f 91/144/79 103/159/93 109/162/96
f 92/136/76 105/163/94 111/164/97
f 114/165/88 96/137/77 120/166/98
f 116/156/90 90/141/81 107/167/95
f 95/138/78 109/168/96 118/157/91
f 96/137/77 111/164/97 120/166/98
f 49/169/99 112/170/100 60/171/101
f 119/172/102 111/164/97 112/170/100
f 117/173/103 53/174/104 54/175/105
f 118/176/91 110/177/106 117/178/103
f 115/179/107 56/180/108 57/181/109
f 116/156/90 108/182/110 115/179/107
f 50/183/111 119/172/102 49/169/99
f 113/184/112 120/166/98 119/172/102
f 60/171/101 106/185/113 59/186/114
f 112/187/100 105/160/94 106/188/113
f 110/177/106 52/189/115 53/190/104
f 109/162/96 104/191/116 110/177/106
f 108/192/110 55/193/117 56/194/108
f 107/161/95 102/195/118 108/192/110
f 59/196/114 100/197/119 58/198/120
f 106/188/113 99/155/89 100/197/119
f 52/189/115 98/199/121 51/200/122
f 104/191/116 97/152/87 98/199/121
f 102/195/118 54/175/105 55/193/117
f 101/158/92 117/173/103 102/195/118
f 100/197/119 57/181/109 58/198/120
f 99/155/89 115/179/107 100/197/119
f 51/200/122 113/201/112 50/202/111
f 98/199/121 114/154/88 113/201/112
f 66/203/74 125/204/123 65/205/67
f 61/135/75 132/206/124 72/126/69
f 123/207/125 62/208/71 63/209/53
f 130/210/126 69/211/73 70/212/56
f 67/114/59 126/213/127 66/133/74
f 124/214/128 63/209/53 64/215/62
f 71/216/63 130/210/126 70/212/56
f 128/217/129 67/114/59 68/122/65
f 65/205/67 124/214/128 64/215/62
f 72/218/69 131/219/130 71/216/63
f 122/220/131 61/135/75 62/129/71
f 129/221/132 68/222/65 69/211/73
f 131/219/130 132/223/124 129/221/132
f 142/224/133 59/225/134 58/226/135
f 55/227/117 140/228/136 56/229/108
f 136/230/137 53/231/104 52/232/138
f 143/233/139 60/234/101 59/225/134
f 49/235/99 134/236/140 50/237/111
f 56/229/108 141/238/141 57/239/142
f 137/240/143 54/241/105 53/231/104
f 144/242/144 49/235/99 60/234/101
f 50/237/111 135/243/145 51/244/122
f 57/239/142 142/224/133 58/226/135
f 138/245/146 55/227/117 54/241/105
f 51/244/122 136/230/137 52/232/138
f 137/240/143 136/230/137 135/243/145
f 3/1/1 2/246/2 12/2/2
f 7/4/3 6/21/4 15/5/4
f 4/7/5 3/1/1 13/3/1
f 8/9/6 7/4/3 16/6/3
f 5/11/7 4/7/5 17/8/5
f 11/13/8 10/247/9 18/14/9
f 2/16/2 1/23/10 22/17/10
f 9/19/11 8/9/6 19/10/6
f 6/21/4 5/248/7 20/22/7
f 1/23/10 11/13/8 21/15/8
f 46/24/12 23/57/12 26/25/12
f 25/30/16 24/65/16 47/31/17
f 47/33/19 24/48/29 23/34/20
f 26/36/21 25/73/45 48/37/22
f 28/39/24 27/249/24 40/40/24
f 27/42/25 28/250/25 33/43/25
f 24/48/29 37/50/31 44/49/30
f 37/50/31 38/52/33 43/51/32
f 38/52/33 39/54/35 42/53/34
f 39/54/35 40/251/26 41/55/28
f 44/56/36 36/59/36 26/25/12
f 43/58/37 35/61/37 36/59/36
f 42/60/38 34/63/38 35/61/37
f 42/60/38 41/252/39 33/62/39
f 29/64/40 37/67/40 24/65/16
f 30/66/41 38/69/41 37/67/40
f 31/68/42 39/71/42 38/69/41
f 31/68/42 32/253/43 40/70/43
f 36/72/44 29/75/47 25/73/45
f 35/74/46 30/77/49 29/75/47
f 34/76/48 31/79/50 30/77/49
f 33/78/13 32/254/15 31/79/50
f 9/80/19 10/255/19 11/81/19
f 11/81/19 1/85/19 7/83/19
f 6/84/19 7/83/19 1/85/19
f 5/87/19 6/84/19 2/86/19
f 21/90/51 18/256/51 14/91/51
f 19/92/51 16/94/51 22/93/51
f 16/94/51 15/97/51 12/95/51
f 13/96/51 12/95/51 15/97/51
f 18/100/52 45/107/52 48/101/18
f 9/103/11 47/106/17 46/104/52
f 14/102/11 48/101/18 47/106/17
f 10/105/52 46/104/52 45/107/52
f 63/108/53 62/129/71 73/109/54
f 70/111/56 69/131/73 75/112/57
f 67/114/59 66/133/74 77/115/60
f 64/117/62 63/257/53 74/118/55
f 71/120/63 70/111/56 76/113/58
f 68/122/65 67/114/59 78/116/61
f 65/124/67 64/117/62 79/119/5
f 72/126/69 71/258/63 80/127/64
f 62/129/71 61/135/75 84/130/72
f 69/131/73 68/259/65 81/132/66
f 66/133/74 65/260/67 82/134/68
f 61/135/75 72/126/69 83/128/70
f 84/130/72 83/128/70 92/136/76
f 95/138/78 77/115/60 82/134/68
f 94/140/80 75/112/57 81/132/66
f 73/109/54 84/130/72 96/137/77
f 83/128/70 80/127/64 89/143/83
f 91/144/79 82/125/68 79/119/5
f 90/146/81 81/123/66 78/116/61
f 80/121/64 76/113/58 86/148/85
f 79/119/5 74/118/55 85/150/86
f 87/147/84 78/116/61 77/115/60
f 86/148/85 76/113/58 75/112/57
f 74/110/55 73/109/54 93/142/82
f 97/152/87 85/150/86 93/153/82
f 99/155/89 86/148/85 94/140/80
f 87/147/84 95/138/78 118/157/91
f 103/159/93 88/145/5 85/150/86
f 89/149/83 86/148/85 99/155/89
f 107/161/95 90/146/81 87/147/84
f 91/144/79 88/145/5 103/159/93
f 92/136/76 89/143/83 105/163/94
f 114/165/88 93/142/82 96/137/77
f 116/156/90 94/140/80 90/141/81
f 95/138/78 91/139/79 109/168/96
f 96/137/77 92/136/76 111/164/97
f 49/169/99 119/172/102 112/170/100
f 119/172/102 120/166/98 111/164/97
f 117/173/103 110/261/106 53/174/104
f 118/176/91 109/162/96 110/177/106
f 115/179/107 108/182/110 56/180/108
f 116/156/90 107/167/95 108/182/110
f 50/183/111 113/184/112 119/172/102
f 113/184/112 114/165/88 120/166/98
f 60/171/101 112/170/100 106/185/113
f 112/187/100 111/262/97 105/160/94
f 110/177/106 104/191/116 52/189/115
f 109/162/96 103/159/93 104/191/116
f 108/192/110 102/195/118 55/193/117
f 107/161/95 101/158/92 102/195/118
f 59/196/114 106/188/113 100/197/119
f 106/188/113 105/160/94 99/155/89
f 52/189/115 104/191/116 98/199/121
f 104/191/116 103/159/93 97/152/87
f 102/195/118 117/173/103 54/175/105
f 101/158/92 118/157/91 117/173/103
f 100/197/119 115/179/107 57/181/109
f 99/155/89 116/156/90 115/179/107
f 51/200/122 98/199/121 113/201/112
f 98/199/121 97/152/87 114/154/88
f 66/203/74 126/263/127 125/204/123
f 61/135/75 121/264/147 132/206/124
f 123/207/125 122/265/131 62/208/71
f 130/210/126 129/221/132 69/211/73
f 67/114/59 127/266/148 126/213/127
f 124/214/128 123/207/125 63/209/53
f 71/216/63 131/219/130 130/210/126
f 128/217/129 127/266/148 67/114/59
f 65/205/67 125/204/123 124/214/128
f 72/218/69 132/223/124 131/219/130
f 122/220/131 121/264/147 61/135/75
f 129/221/132 128/267/129 68/222/65
f 121/268/147 122/265/131 126/263/127
f 122/265/131 123/207/125 125/204/123
f 123/207/125 124/214/128 125/204/123
f 125/204/123 126/263/127 122/265/131
f 126/263/127 127/269/148 121/268/147
f 127/269/148 128/267/129 121/268/147
f 128/267/129 129/221/132 132/223/124
f 121/268/147 128/267/129 132/223/124
f 129/221/132 130/210/126 131/219/130
f 142/224/133 143/233/139 59/225/134
f 55/227/117 139/270/149 140/228/136
f 136/230/137 137/240/143 53/231/104
f 143/233/139 144/242/144 60/234/101
f 49/235/99 133/271/150 134/236/140
f 56/229/108 140/228/136 141/238/141
f 137/240/143 138/245/146 54/241/105
f 144/242/144 133/271/150 49/235/99
f 50/237/111 134/236/140 135/243/145
f 57/239/142 141/238/141 142/224/133
f 138/245/146 139/270/149 55/227/117
f 51/244/122 135/243/145 136/230/137
f 135/243/145 134/236/140 138/245/146
f 134/236/140 133/271/150 139/270/149
f 133/271/150 144/242/144 139/270/149
f 144/242/144 143/233/139 140/228/136
f 139/270/149 144/242/144 140/228/136
f 143/233/139 142/224/133 141/238/141
f 141/238/141 140/228/136 143/233/139
f 139/270/149 138/245/146 134/236/140
f 138/245/146 137/240/143 135/243/145
